<?xml version="1.0" standalone="no"?>
<!DOCTYPE svg PUBLIC "-//W3C//DTD SVG 20010904//EN"
 "http://www.w3.org/TR/2001/REC-SVG-20010904/DTD/svg10.dtd">
<svg version="1.0" xmlns="http://www.w3.org/2000/svg"
 width="764.000000pt" height="277.000000pt" viewBox="0 0 764.000000 277.000000"
 preserveAspectRatio="xMidYMid meet">

<g transform="translate(0.000000,277.000000) scale(0.100000,-0.100000)"
fill="#000000" stroke="none">
<path d="M5662 2555 c0 -16 2 -22 5 -12 2 9 2 23 0 30 -3 6 -5 -1 -5 -18z"/>
<path d="M1955 1385 c0 -632 1 -890 2 -572 2 318 2 836 0 1150 -1 315 -2 55
-2 -578z"/>
<path d="M3805 1385 c0 -632 1 -890 2 -572 2 318 2 836 0 1150 -1 315 -2 55
-2 -578z"/>
<path d="M1000 2072 c0 -127 -11 -144 -122 -202 -67 -35 -177 -63 -211 -55
-13 4 -53 35 -88 71 -54 55 -99 81 -99 57 0 -3 32 -40 71 -80 l72 -74 -5 -64
c-6 -75 -56 -189 -107 -248 l-32 -36 -102 -3 c-83 -2 -102 -6 -102 -18 0 -12
19 -16 102 -18 l102 -3 30 -35 c58 -66 111 -197 111 -277 0 -35 -8 -47 -72
-113 -56 -58 -69 -77 -60 -86 10 -10 28 4 85 60 69 69 75 72 119 72 93 0 230
-59 282 -121 24 -28 26 -37 26 -130 0 -81 3 -99 15 -99 12 0 15 18 15 99 0 93
2 102 26 131 47 55 202 120 286 120 35 0 48 -8 114 -71 56 -53 78 -69 87 -60
8 8 -6 28 -56 79 -43 43 -69 78 -73 98 -12 61 46 224 105 295 29 34 29 34 132
39 84 4 104 8 104 20 0 12 -20 16 -102 20 -89 4 -105 8 -126 28 -54 51 -117
205 -117 285 0 35 8 47 72 113 53 55 69 77 60 86 -8 8 -30 -7 -86 -61 -70 -69
-77 -73 -120 -73 -87 0 -223 58 -274 117 -31 35 -32 38 -32 135 0 82 -3 100
-15 100 -12 0 -15 -18 -15 -98z m0 -230 l0 -59 -47 -25 c-27 -14 -77 -35 -112
-47 l-64 -22 -44 43 -44 43 63 13 c69 14 169 57 208 90 14 12 28 21 33 22 4 0
7 -26 7 -58z m77 32 c49 -37 129 -71 201 -85 l64 -12 -44 -44 -44 -44 -75 27
c-41 14 -91 36 -111 47 -37 20 -38 22 -38 79 0 32 3 58 7 58 3 0 21 -12 40
-26z m-345 -249 c-15 -58 -73 -176 -88 -182 -6 -2 -35 -3 -64 -1 l-53 3 27 32
c37 43 87 155 93 206 8 73 10 74 56 29 l41 -42 -12 -45z m651 73 c6 -60 41
-146 87 -213 l31 -45 -59 0 c-51 0 -62 3 -74 23 -22 33 -78 173 -78 193 0 17
66 94 81 94 3 0 9 -24 12 -52z m-383 -17 l0 -58 -57 -21 -58 -21 -37 36 c-21
21 -38 40 -38 43 0 4 19 13 43 20 23 7 62 23 87 36 25 13 48 23 53 24 4 0 7
-26 7 -59z m162 5 c31 -12 59 -24 62 -27 3 -3 -12 -22 -33 -43 l-39 -38 -61
22 -61 23 0 58 0 59 38 -16 c20 -9 63 -26 94 -38z m-339 -93 l36 -38 -26 -57
-26 -58 -59 0 -58 0 23 48 c13 26 32 68 42 95 10 26 21 47 24 47 4 0 23 -17
44 -37z m456 -18 c12 -31 30 -74 41 -95 l20 -40 -59 0 -59 0 -21 49 c-11 27
-21 55 -21 62 0 14 59 79 71 79 4 0 17 -25 28 -55z m-279 -50 c0 -30 -4 -55
-8 -55 -4 0 -25 18 -46 39 l-39 40 34 15 c55 24 59 21 59 -39z m85 39 l38 -15
-39 -40 c-21 -21 -42 -39 -46 -39 -4 0 -8 25 -8 55 0 30 4 55 9 55 5 0 25 -7
46 -16z m-150 -84 l39 -40 -62 0 c-34 0 -62 2 -62 5 0 15 30 75 37 75 5 0 27
-18 48 -40z m231 5 c7 -19 14 -37 14 -40 0 -3 -28 -5 -62 -5 l-62 0 39 40 c21
22 43 40 48 40 4 0 15 -16 23 -35z m-479 -156 c18 -37 38 -87 45 -113 l12 -46
-39 -40 c-21 -22 -43 -40 -47 -40 -4 0 -8 15 -8 33 0 49 -37 151 -77 209 -18
28 -36 55 -39 60 -3 5 22 8 57 6 l64 -3 32 -66z m142 22 c28 -65 27 -71 -14
-111 -39 -38 -46 -35 -65 25 -7 22 -23 61 -37 88 l-23 47 59 0 59 0 21 -49z
m106 9 c-21 -22 -43 -40 -48 -40 -7 0 -37 60 -37 75 0 3 28 5 62 5 l62 0 -39
-40z m245 35 c0 -15 -30 -75 -37 -75 -5 0 -27 18 -48 40 l-39 40 62 0 c34 0
62 -2 62 -5z m140 -35 c-11 -21 -29 -64 -41 -95 -11 -30 -23 -55 -27 -55 -12
0 -72 64 -72 78 0 7 10 36 21 63 l21 49 59 0 59 0 -20 -40z m180 36 c0 -2 -15
-27 -34 -55 -41 -60 -74 -144 -84 -212 l-7 -50 -44 45 -45 46 18 57 c10 32 31
84 47 116 l29 57 60 0 c33 0 60 -2 60 -4z m-504 -133 c-5 -5 -63 14 -75 24 -3
2 13 22 35 44 l39 40 3 -52 c2 -28 1 -54 -2 -56z m114 26 c0 -7 -55 -29 -71
-29 -5 0 -9 26 -9 57 l0 57 40 -39 c22 -21 40 -42 40 -46z m-162 -53 l52 -20
0 -58 c0 -32 -2 -58 -5 -58 -3 0 -27 11 -53 24 -26 13 -66 29 -89 36 -24 7
-43 16 -43 19 0 9 74 81 80 79 3 -2 29 -12 58 -22z m234 -13 c21 -20 38 -40
38 -43 0 -4 -19 -13 -42 -20 -24 -7 -64 -23 -90 -36 -26 -13 -50 -24 -53 -24
-3 0 -5 26 -5 58 l0 57 53 22 c28 11 54 21 57 22 2 1 21 -16 42 -36z m-244
-135 l62 -31 0 -58 c0 -33 -3 -59 -6 -59 -3 0 -18 9 -34 20 -49 35 -153 80
-213 91 l-58 12 42 43 41 42 52 -15 c28 -8 79 -28 114 -45z m360 -39 c-69 -9
-155 -42 -218 -85 l-50 -34 0 63 0 64 58 28 c31 16 82 36 112 46 l55 17 48
-46 48 -47 -53 -6z"/>
<path d="M6140 1420 l0 -690 535 0 535 0 0 499 0 500 -214 190 -214 191 -321
0 -321 0 0 -690z m531 408 c-1 -98 1 -178 6 -178 4 -1 101 -1 215 -2 195 -1
207 -2 212 -20 2 -11 4 -194 3 -406 l-2 -387 -427 -3 -428 -2 -2 586 c-2 322
-1 588 1 590 3 2 99 3 214 2 l210 -3 -2 -177z m319 -75 c0 -2 -47 -3 -105 -3
l-105 0 0 107 0 108 105 -105 c58 -58 105 -106 105 -107z"/>
<path d="M6350 1575 l0 -35 110 0 110 0 0 35 0 35 -110 0 -110 0 0 -35z"/>
<path d="M6350 1435 l0 -35 325 0 325 0 0 35 0 35 -325 0 -325 0 0 -35z"/>
<path d="M6350 1301 c0 -17 6 -31 16 -35 9 -3 155 -6 325 -6 l309 0 0 35 0 35
-325 0 -325 0 0 -29z"/>
<path d="M6363 1193 c-7 -3 -13 -18 -13 -34 l0 -29 325 0 325 0 0 29 c0 23 -6
30 -25 35 -29 7 -593 6 -612 -1z"/>
<path d="M6350 1025 l0 -35 325 0 325 0 0 35 0 35 -325 0 -325 0 0 -35z"/>
<path d="M4511 2008 c-112 -32 -226 -153 -249 -265 -7 -35 -10 -37 -67 -50
-190 -43 -293 -234 -229 -426 24 -73 119 -166 193 -190 50 -16 201 -24 201
-11 0 3 -19 28 -42 55 -34 41 -47 49 -75 49 -67 0 -147 60 -177 132 -41 98 5
220 101 268 34 17 57 21 112 18 l69 -3 5 63 c15 160 119 265 262 264 34 0 80
-8 101 -17 48 -20 109 -78 135 -128 15 -28 25 -37 36 -32 41 15 106 25 131 19
107 -26 173 -108 174 -216 l0 -48 47 0 c55 0 126 -33 154 -72 31 -41 34 -118
8 -165 -35 -61 -65 -77 -149 -81 l-72 -4 -46 -52 -47 -51 108 -3 c132 -3 184
11 244 70 59 56 83 114 83 195 -1 117 -66 211 -177 252 -47 17 -50 21 -68 76
-40 119 -164 205 -295 205 -57 0 -59 1 -118 59 -77 74 -144 101 -247 100 -40
0 -87 -5 -106 -11z"/>
<path d="M2180 1420 l0 -540 690 0 690 0 0 540 0 540 -690 0 -690 0 0 -540z
m978 399 c3 -28 -16 -43 -43 -33 -15 6 -21 45 -8 58 16 16 48 1 51 -25z m122
12 c7 -15 6 -23 -6 -35 -18 -18 -17 -18 -38 -10 -16 6 -22 45 -9 57 13 14 43
7 53 -12z m120 0 c7 -15 6 -24 -6 -36 -9 -9 -21 -14 -27 -12 -18 6 -31 33 -24
51 9 22 44 20 57 -3z m60 -496 l0 -345 -590 0 -590 0 0 345 0 345 590 0 590 0
0 -345z"/>
<path d="M2537 1432 l-97 -97 100 -100 c98 -98 99 -99 120 -80 11 10 20 23 20
29 0 6 -32 43 -70 81 l-70 69 72 73 73 73 -25 25 -25 25 -98 -98z"/>
<path d="M2842 1351 c-93 -228 -91 -216 -54 -229 l30 -10 82 196 c75 182 80
197 64 209 -39 28 -47 17 -122 -166z"/>
<path d="M3080 1505 l-24 -26 72 -72 72 -73 -70 -69 c-38 -38 -70 -75 -70 -81
0 -6 9 -19 20 -29 21 -19 22 -18 121 81 l99 99 -98 98 -98 98 -24 -26z"/>
<path d="M4590 1439 l0 -208 -106 -3 -106 -3 172 -202 c95 -112 175 -203 178
-202 4 0 32 30 62 67 30 36 108 128 173 204 l117 138 -110 0 -110 0 0 209 0
208 -135 0 -135 1 0 -209z"/>
<path d="M5662 265 c0 -16 2 -22 5 -12 2 9 2 23 0 30 -3 6 -5 -1 -5 -18z"/>
</g>
</svg>
